<?xml version="1.0" encoding="UTF-8"?>
<svg xmlns="http://www.w3.org/2000/svg" xmlns:xlink="http://www.w3.org/1999/xlink" width="576pt" height="432pt" viewBox="0 0 576 432">
<rect x="-57.6" y="-43.2" width="691.2" height="518.4" fill="rgb(100%, 100%, 100%)" fill-opacity="1"/>
<path fill="none" stroke-width="0.75" stroke-linecap="round" stroke-linejoin="round" stroke="rgb(39.215686%, 58.431373%, 92.941176%)" stroke-opacity="1" stroke-miterlimit="10" d="M 115.15625 308.25 L 115.199219 308.25 Z M 115.15625 308.25 "/>
<path fill-rule="nonzero" fill="rgb(39.215686%, 58.431373%, 92.941176%)" fill-opacity="1" stroke-width="0.75" stroke-linecap="round" stroke-linejoin="round" stroke="rgb(39.215686%, 58.431373%, 92.941176%)" stroke-opacity="1" stroke-miterlimit="10" d="M 117.164062 308.277344 L 119.214844 308.253906 L 121.351562 308.175781 L 123.578125 308.054688 L 125.890625 307.882812 L 128.285156 307.667969 L 130.769531 307.410156 L 133.339844 307.105469 L 135.992188 306.761719 L 138.722656 306.378906 L 141.539062 305.957031 L 144.433594 305.496094 L 147.402344 304.996094 L 150.449219 304.460938 L 153.570312 303.890625 L 156.757812 303.273438 L 160 302.539062 L 163.304688 301.765625 L 166.675781 300.964844 L 170.109375 300.128906 L 173.601562 299.261719 L 177.15625 298.363281 L 180.765625 297.4375 L 184.429688 296.484375 L 188.148438 295.503906 L 191.917969 294.496094 L 195.734375 293.464844 L 199.597656 292.410156 L 203.507812 291.332031 L 207.457031 290.230469 L 211.449219 289.113281 L 215.480469 287.972656 L 219.546875 286.8125 L 223.648438 285.636719 L 227.78125 284.445312 L 231.945312 283.238281 L 236.136719 282.019531 L 240.355469 280.785156 L 244.597656 279.539062 L 248.859375 278.28125 L 253.140625 277.011719 L 257.441406 275.734375 L 261.757812 274.453125 L 266.085938 273.160156 L 270.425781 271.863281 L 274.773438 270.5625 L 279.132812 269.257812 L 283.492188 267.949219 L 292.21875 265.332031 L 296.578125 264.023438 L 300.9375 262.71875 L 305.289062 261.414062 L 309.632812 260.113281 L 313.96875 258.820312 L 318.289062 257.53125 L 322.597656 256.25 L 326.886719 254.976562 L 331.15625 253.710938 L 335.40625 252.457031 L 339.632812 251.214844 L 343.835938 249.988281 L 348.011719 248.769531 L 352.15625 247.570312 L 356.269531 246.382812 L 360.347656 245.214844 L 364.390625 244.0625 L 368.394531 242.929688 L 372.355469 241.816406 L 376.277344 240.726562 L 380.152344 239.660156 L 383.984375 238.613281 L 387.761719 237.589844 L 391.488281 236.59375 L 395.164062 235.625 L 398.78125 234.683594 L 402.339844 233.769531 L 405.839844 232.886719 L 409.273438 232.035156 L 412.644531 231.214844 L 415.949219 230.425781 L 419.179688 229.675781 L 422.339844 228.957031 L 425.410156 228.1875 L 428.398438 227.449219 L 431.308594 226.75 L 434.140625 226.09375 L 436.886719 225.480469 L 439.550781 224.914062 L 442.121094 224.386719 L 444.605469 223.910156 L 446.996094 223.476562 L 449.285156 223.09375 L 451.480469 222.761719 L 453.566406 222.476562 L 455.546875 222.242188 L 457.417969 222.0625 L 459.167969 221.929688 L 460.800781 221.851562 L 462.449219 221.8125 L 464.082031 221.796875 L 465.699219 221.804688 L 467.296875 221.835938 L 468.878906 221.894531 L 470.445312 221.972656 L 471.996094 222.074219 L 473.527344 222.199219 L 475.042969 222.347656 L 476.539062 222.515625 L 478.019531 222.703125 L 479.480469 222.910156 L 480.921875 223.136719 L 482.347656 223.382812 L 483.753906 223.648438 L 485.140625 223.933594 L 486.507812 224.234375 L 487.855469 224.550781 L 489.1875 224.886719 L 490.496094 225.238281 L 491.785156 225.601562 L 493.058594 225.984375 L 494.308594 226.378906 L 495.535156 226.789062 L 496.746094 227.214844 L 497.933594 227.648438 L 499.101562 228.097656 L 500.246094 228.558594 L 501.371094 229.03125 L 502.472656 229.515625 L 503.554688 230.007812 L 504.613281 230.507812 L 505.648438 231.023438 L 506.664062 231.542969 L 507.652344 232.070312 L 508.621094 232.605469 L 509.566406 233.152344 L 510.484375 233.699219 L 511.382812 234.257812 L 512.253906 234.816406 L 513.105469 235.382812 L 513.929688 235.953125 L 514.726562 236.523438 L 515.503906 237.101562 L 516.25 237.679688 L 516.976562 238.257812 L 517.675781 238.839844 L 518.347656 239.421875 L 518.992188 240.003906 L 519.613281 240.582031 L 520.207031 241.160156 L 520.773438 241.738281 L 521.316406 242.308594 L 521.828125 242.878906 L 522.3125 243.441406 L 522.769531 244 L 523.203125 244.554688 L 523.605469 245.097656 L 523.980469 245.636719 L 524.328125 246.164062 L 524.644531 246.679688 L 524.9375 247.1875 L 525.199219 247.683594 L 525.433594 248.164062 L 525.640625 248.628906 L 525.824219 249.082031 L 525.976562 249.515625 L 526.105469 249.933594 L 526.210938 250.332031 L 526.289062 250.710938 L 526.347656 251.066406 L 526.382812 251.40625 L 526.398438 251.722656 L 526.394531 252.015625 L 526.375 252.292969 L 526.339844 252.550781 L 526.289062 252.789062 L 526.226562 253.015625 L 526.148438 253.230469 L 526.054688 253.4375 L 525.945312 253.636719 L 525.816406 253.832031 L 525.667969 254.027344 L 525.496094 254.222656 L 525.292969 254.417969 L 525.058594 254.613281 L 524.789062 254.804688 L 524.484375 254.996094 L 524.140625 255.179688 L 523.757812 255.359375 L 523.332031 255.53125 L 522.867188 255.691406 L 522.355469 255.839844 L 521.804688 255.972656 L 521.207031 256.089844 L 520.570312 256.1875 L 519.890625 256.269531 L 519.164062 256.328125 L 518.398438 256.367188 L 518.285156 256.371094 L 518.175781 256.382812 L 518.066406 256.398438 L 517.960938 256.414062 L 517.855469 256.433594 L 517.753906 256.453125 L 517.652344 256.480469 L 517.554688 256.507812 L 517.367188 256.570312 L 517.277344 256.609375 L 517.1875 256.644531 L 517.101562 256.6875 L 516.9375 256.773438 L 516.859375 256.824219 L 516.785156 256.871094 L 516.710938 256.925781 L 516.636719 256.976562 L 516.566406 257.035156 L 516.5 257.089844 L 516.433594 257.152344 L 516.371094 257.210938 L 516.3125 257.277344 L 516.253906 257.339844 L 516.144531 257.472656 L 516.09375 257.542969 L 516.046875 257.613281 L 516 257.6875 L 515.953125 257.757812 L 515.914062 257.832031 L 515.875 257.910156 L 515.835938 257.984375 L 515.800781 258.0625 L 515.738281 258.21875 L 515.710938 258.300781 L 515.683594 258.378906 L 515.664062 258.460938 L 515.640625 258.542969 L 515.621094 258.625 L 515.605469 258.707031 L 515.59375 258.792969 L 515.570312 258.957031 L 515.566406 259.042969 L 515.558594 259.125 L 515.558594 259.378906 L 515.5625 259.460938 L 515.570312 259.546875 L 515.582031 259.628906 L 515.59375 259.714844 L 515.605469 259.796875 L 515.621094 259.878906 L 515.640625 259.960938 L 515.660156 260.039062 L 515.683594 260.121094 L 515.710938 260.199219 L 515.738281 260.28125 L 515.769531 260.359375 L 515.800781 260.433594 L 515.835938 260.511719 L 515.871094 260.585938 L 515.910156 260.660156 L 515.953125 260.730469 L 515.996094 260.804688 L 516.042969 260.875 L 516.144531 261.007812 L 516.253906 261.140625 L 516.3125 261.203125 L 516.371094 261.261719 L 516.433594 261.320312 L 516.5 261.378906 L 516.566406 261.433594 L 516.636719 261.488281 L 516.707031 261.539062 L 516.78125 261.585938 L 516.9375 261.679688 L 517.019531 261.722656 L 517.101562 261.761719 L 517.1875 261.800781 L 517.277344 261.832031 L 517.367188 261.867188 L 517.554688 261.921875 L 517.652344 261.949219 L 517.855469 261.988281 L 517.957031 262.003906 L 518.066406 262.015625 L 518.285156 262.03125 L 518.398438 262.035156 L 519.34375 262.046875 L 520.261719 262.027344 L 521.152344 261.980469 L 522.011719 261.898438 L 522.847656 261.789062 L 523.660156 261.648438 L 524.445312 261.476562 L 525.203125 261.269531 L 525.9375 261.027344 L 526.644531 260.753906 L 527.328125 260.441406 L 527.980469 260.09375 L 528.605469 259.710938 L 529.195312 259.289062 L 529.753906 258.828125 L 530.273438 258.332031 L 530.753906 257.796875 L 531.195312 257.234375 L 531.585938 256.636719 L 531.933594 256.015625 L 532.230469 255.371094 L 532.476562 254.707031 L 532.675781 254.027344 L 532.828125 253.335938 L 532.929688 252.636719 L 532.992188 251.929688 L 533.007812 251.222656 L 532.984375 250.507812 L 532.921875 249.792969 L 532.820312 249.074219 L 532.683594 248.359375 L 532.515625 247.640625 L 532.308594 246.917969 L 532.074219 246.199219 L 531.804688 245.476562 L 531.507812 244.753906 L 531.179688 244.027344 L 530.820312 243.304688 L 530.433594 242.578125 L 530.019531 241.847656 L 529.574219 241.121094 L 529.105469 240.390625 L 528.605469 239.660156 L 528.078125 238.925781 L 527.523438 238.195312 L 526.941406 237.464844 L 526.332031 236.734375 L 525.695312 236 L 525.035156 235.273438 L 524.34375 234.542969 L 523.628906 233.816406 L 522.886719 233.089844 L 522.121094 232.367188 L 521.328125 231.644531 L 520.507812 230.929688 L 519.664062 230.214844 L 518.792969 229.503906 L 517.894531 228.800781 L 516.972656 228.097656 L 516.023438 227.40625 L 515.054688 226.714844 L 514.054688 226.035156 L 513.03125 225.359375 L 511.984375 224.691406 L 510.914062 224.03125 L 509.816406 223.378906 L 508.695312 222.734375 L 507.550781 222.101562 L 506.382812 221.480469 L 505.191406 220.867188 L 503.972656 220.265625 L 502.730469 219.675781 L 501.46875 219.097656 L 500.179688 218.53125 L 498.871094 217.980469 L 497.535156 217.441406 L 496.179688 216.917969 L 494.796875 216.410156 L 493.394531 215.917969 L 491.96875 215.4375 L 490.519531 214.976562 L 489.050781 214.535156 L 487.558594 214.109375 L 486.042969 213.699219 L 484.507812 213.3125 L 482.949219 212.941406 L 481.371094 212.589844 L 479.769531 212.261719 L 478.148438 211.953125 L 476.503906 211.664062 L 474.839844 211.402344 L 473.15625 211.160156 L 471.453125 210.941406 L 469.726562 210.746094 L 467.980469 210.574219 L 466.214844 210.429688 L 464.429688 210.308594 L 462.625 210.214844 L 460.800781 210.148438 L 460.714844 210.144531 L 460.714844 210.148438 L 458.835938 210.121094 L 456.785156 210.148438 L 454.648438 210.222656 L 452.421875 210.347656 L 450.109375 210.515625 L 447.714844 210.730469 L 445.230469 210.992188 L 442.660156 211.292969 L 440.007812 211.636719 L 437.277344 212.019531 L 434.460938 212.445312 L 431.566406 212.90625 L 428.597656 213.40625 L 425.550781 213.941406 L 422.429688 214.511719 L 419.242188 215.125 L 416 215.863281 L 412.695312 216.632812 L 409.324219 217.4375 L 405.890625 218.273438 L 402.398438 219.140625 L 398.84375 220.035156 L 395.234375 220.960938 L 391.570312 221.917969 L 387.851562 222.898438 L 384.082031 223.902344 L 380.265625 224.933594 L 376.402344 225.992188 L 372.492188 227.070312 L 368.542969 228.167969 L 364.550781 229.289062 L 360.519531 230.429688 L 356.453125 231.585938 L 352.351562 232.761719 L 348.21875 233.953125 L 344.054688 235.160156 L 339.863281 236.382812 L 335.644531 237.617188 L 331.402344 238.863281 L 327.140625 240.121094 L 322.859375 241.386719 L 318.558594 242.664062 L 314.242188 243.949219 L 309.914062 245.238281 L 305.574219 246.535156 L 301.226562 247.835938 L 296.867188 249.140625 L 292.507812 250.449219 L 283.78125 253.066406 L 279.421875 254.375 L 275.0625 255.679688 L 270.710938 256.984375 L 266.367188 258.285156 L 262.03125 259.578125 L 257.710938 260.867188 L 253.402344 262.148438 L 249.113281 263.421875 L 244.84375 264.6875 L 240.59375 265.941406 L 236.367188 267.183594 L 232.164062 268.414062 L 227.988281 269.628906 L 223.84375 270.832031 L 219.730469 272.015625 L 215.652344 273.1875 L 211.609375 274.335938 L 207.605469 275.46875 L 203.644531 276.582031 L 199.722656 277.671875 L 195.847656 278.742188 L 192.015625 279.789062 L 188.238281 280.808594 L 184.511719 281.804688 L 180.835938 282.773438 L 177.21875 283.714844 L 173.660156 284.628906 L 170.160156 285.511719 L 166.726562 286.363281 L 163.355469 287.183594 L 160.050781 287.972656 L 156.820312 288.726562 L 153.660156 289.445312 L 150.589844 290.210938 L 147.601562 290.949219 L 144.691406 291.648438 L 141.859375 292.304688 L 139.113281 292.917969 L 136.449219 293.488281 L 133.878906 294.011719 L 131.394531 294.492188 L 129.003906 294.921875 L 126.714844 295.304688 L 124.519531 295.640625 L 122.433594 295.921875 L 120.453125 296.15625 L 118.582031 296.339844 L 116.832031 296.46875 L 115.199219 296.546875 L 113.550781 296.589844 L 111.917969 296.605469 L 110.300781 296.597656 L 108.703125 296.5625 L 107.121094 296.507812 L 105.554688 296.425781 L 104.003906 296.324219 L 102.472656 296.199219 L 100.957031 296.054688 L 99.460938 295.886719 L 97.980469 295.699219 L 96.519531 295.492188 L 95.078125 295.261719 L 93.652344 295.015625 L 92.246094 294.75 L 90.859375 294.46875 L 89.492188 294.167969 L 88.144531 293.847656 L 86.8125 293.511719 L 85.503906 293.164062 L 84.214844 292.796875 L 82.941406 292.414062 L 81.691406 292.019531 L 80.464844 291.609375 L 79.253906 291.1875 L 78.066406 290.75 L 76.898438 290.300781 L 75.753906 289.839844 L 74.628906 289.367188 L 73.527344 288.886719 L 72.445312 288.394531 L 71.386719 287.890625 L 70.351562 287.378906 L 69.335938 286.859375 L 68.347656 286.328125 L 67.378906 285.792969 L 66.433594 285.25 L 65.515625 284.699219 L 64.617188 284.144531 L 63.746094 283.582031 L 62.894531 283.015625 L 62.070312 282.449219 L 61.273438 281.875 L 60.496094 281.296875 L 59.75 280.71875 L 59.023438 280.140625 L 58.324219 279.558594 L 57.652344 278.976562 L 57.007812 278.398438 L 56.386719 277.816406 L 55.792969 277.238281 L 55.226562 276.664062 L 54.683594 276.089844 L 54.171875 275.519531 L 53.6875 274.957031 L 53.230469 274.398438 L 52.796875 273.847656 L 52.394531 273.300781 L 52.019531 272.765625 L 51.671875 272.238281 L 51.355469 271.71875 L 51.0625 271.210938 L 50.800781 270.71875 L 50.566406 270.238281 L 50.359375 269.769531 L 50.175781 269.320312 L 50.023438 268.882812 L 49.894531 268.46875 L 49.789062 268.070312 L 49.710938 267.691406 L 49.652344 267.332031 L 49.617188 266.996094 L 49.601562 266.679688 L 49.605469 266.382812 L 49.625 266.105469 L 49.660156 265.851562 L 49.710938 265.609375 L 49.773438 265.382812 L 49.851562 265.167969 L 49.945312 264.964844 L 50.054688 264.761719 L 50.183594 264.566406 L 50.332031 264.371094 L 50.503906 264.175781 L 50.707031 263.984375 L 50.941406 263.789062 L 51.210938 263.59375 L 51.515625 263.40625 L 51.859375 263.21875 L 52.242188 263.039062 L 52.667969 262.871094 L 53.132812 262.710938 L 53.644531 262.5625 L 54.195312 262.429688 L 54.792969 262.3125 L 55.429688 262.210938 L 56.109375 262.132812 L 56.835938 262.074219 L 57.601562 262.035156 L 57.714844 262.027344 L 57.933594 262.003906 L 58.039062 261.988281 L 58.144531 261.96875 L 58.246094 261.945312 L 58.347656 261.917969 L 58.445312 261.890625 L 58.632812 261.828125 L 58.722656 261.792969 L 58.8125 261.753906 L 58.898438 261.714844 L 58.980469 261.671875 L 59.0625 261.625 L 59.140625 261.578125 L 59.289062 261.476562 L 59.363281 261.421875 L 59.433594 261.367188 L 59.566406 261.25 L 59.628906 261.1875 L 59.6875 261.125 L 59.746094 261.058594 L 59.855469 260.925781 L 59.90625 260.855469 L 60 260.714844 L 60.046875 260.640625 L 60.125 260.492188 L 60.164062 260.414062 L 60.199219 260.339844 L 60.230469 260.257812 L 60.261719 260.179688 L 60.289062 260.101562 L 60.316406 260.019531 L 60.335938 259.9375 L 60.359375 259.855469 L 60.378906 259.773438 L 60.394531 259.691406 L 60.40625 259.609375 L 60.417969 259.523438 L 60.429688 259.441406 L 60.433594 259.355469 L 60.441406 259.273438 L 60.441406 259.019531 L 60.4375 258.9375 L 60.429688 258.851562 L 60.394531 258.605469 L 60.378906 258.523438 L 60.339844 258.359375 L 60.316406 258.277344 L 60.261719 258.121094 L 60.199219 257.964844 L 60.164062 257.890625 L 60.128906 257.8125 L 60.089844 257.742188 L 60.046875 257.667969 L 60.003906 257.597656 L 59.957031 257.527344 L 59.90625 257.457031 L 59.855469 257.390625 L 59.800781 257.324219 L 59.746094 257.261719 L 59.628906 257.136719 L 59.566406 257.078125 L 59.5 257.019531 L 59.433594 256.964844 L 59.292969 256.863281 L 59.21875 256.8125 L 59.140625 256.765625 L 59.0625 256.722656 L 58.898438 256.636719 L 58.8125 256.601562 L 58.722656 256.566406 L 58.632812 256.535156 L 58.539062 256.503906 L 58.445312 256.476562 L 58.347656 256.453125 L 58.246094 256.429688 L 58.042969 256.398438 L 57.933594 256.382812 L 57.714844 256.367188 L 57.601562 256.367188 L 56.65625 256.355469 L 55.738281 256.371094 L 54.847656 256.421875 L 53.988281 256.5 L 53.152344 256.609375 L 52.339844 256.75 L 51.554688 256.925781 L 50.796875 257.132812 L 50.0625 257.371094 L 49.355469 257.648438 L 48.671875 257.957031 L 48.019531 258.304688 L 47.394531 258.691406 L 46.804688 259.113281 L 46.246094 259.570312 L 45.726562 260.070312 L 45.246094 260.601562 L 44.804688 261.167969 L 44.414062 261.761719 L 44.066406 262.386719 L 43.769531 263.03125 L 43.523438 263.695312 L 43.324219 264.375 L 43.171875 265.0625 L 43.070312 265.761719 L 43.007812 266.46875 L 42.992188 267.179688 L 43.015625 267.890625 L 43.078125 268.605469 L 43.179688 269.324219 L 43.316406 270.042969 L 43.484375 270.761719 L 43.691406 271.480469 L 43.925781 272.203125 L 44.195312 272.925781 L 44.492188 273.648438 L 44.820312 274.371094 L 45.179688 275.097656 L 45.566406 275.824219 L 45.980469 276.550781 L 46.425781 277.28125 L 46.894531 278.011719 L 47.394531 278.742188 L 47.921875 279.472656 L 48.476562 280.203125 L 49.058594 280.9375 L 49.667969 281.667969 L 50.304688 282.398438 L 50.964844 283.128906 L 51.65625 283.855469 L 52.371094 284.585938 L 53.113281 285.308594 L 53.878906 286.035156 L 54.671875 286.753906 L 55.492188 287.472656 L 56.335938 288.183594 L 57.207031 288.894531 L 58.105469 289.601562 L 59.027344 290.300781 L 59.976562 290.996094 L 60.945312 291.683594 L 61.945312 292.367188 L 62.96875 293.042969 L 64.015625 293.710938 L 65.085938 294.371094 L 66.183594 295.023438 L 67.304688 295.664062 L 68.449219 296.296875 L 69.617188 296.921875 L 70.808594 297.53125 L 72.027344 298.132812 L 73.269531 298.722656 L 74.53125 299.300781 L 75.820312 299.867188 L 77.128906 300.417969 L 78.464844 300.957031 L 79.820312 301.480469 L 81.203125 301.988281 L 82.605469 302.484375 L 84.03125 302.960938 L 85.480469 303.421875 L 86.949219 303.867188 L 88.441406 304.292969 L 89.957031 304.699219 L 91.492188 305.089844 L 93.050781 305.460938 L 94.628906 305.808594 L 96.230469 306.136719 L 97.851562 306.445312 L 99.496094 306.734375 L 101.160156 307 L 102.84375 307.242188 L 104.546875 307.460938 L 106.273438 307.65625 L 108.019531 307.824219 L 109.785156 307.972656 L 111.570312 308.089844 L 113.375 308.183594 L 115.15625 308.25 L 115.199219 308.25 Z M 117.164062 308.277344 "/>
<path fill-rule="nonzero" fill="rgb(0%, 0%, 0%)" fill-opacity="1" stroke-width="0.75" stroke-linecap="round" stroke-linejoin="round" stroke="rgb(0%, 0%, 0%)" stroke-opacity="1" stroke-miterlimit="10" d="M 178.390625 177.15625 L 178.398438 177.144531 L 178.367188 177.1875 Z M 178.390625 177.15625 "/>
<path fill-rule="nonzero" fill="rgb(0%, 0%, 0%)" fill-opacity="1" stroke-width="0.75" stroke-linecap="round" stroke-linejoin="round" stroke="rgb(0%, 0%, 0%)" stroke-opacity="1" stroke-miterlimit="10" d="M 180.636719 174.261719 L 182.78125 171.410156 L 184.808594 168.625 L 186.71875 165.910156 L 188.507812 163.261719 L 190.1875 160.679688 L 191.75 158.160156 L 193.207031 155.703125 L 194.554688 153.308594 L 195.792969 150.972656 L 196.929688 148.695312 L 197.964844 146.46875 L 198.894531 144.300781 L 199.726562 142.179688 L 200.460938 140.109375 L 201.09375 138.085938 L 201.628906 136.105469 L 202.066406 134.167969 L 202.40625 132.265625 L 202.644531 130.402344 L 202.78125 128.574219 L 202.816406 126.78125 L 202.742188 125.023438 L 202.558594 123.304688 L 202.261719 121.621094 L 201.851562 119.984375 L 201.320312 118.398438 L 200.675781 116.867188 L 199.921875 115.410156 L 199.054688 114.027344 L 198.085938 112.730469 L 197.027344 111.523438 L 195.871094 110.433594 L 194.632812 109.457031 L 193.335938 108.585938 L 191.996094 107.8125 L 190.617188 107.136719 L 189.203125 106.550781 L 187.757812 106.054688 L 186.292969 105.640625 L 184.804688 105.304688 L 183.296875 105.039062 L 181.773438 104.84375 L 180.234375 104.714844 L 178.679688 104.648438 L 177.109375 104.640625 L 175.527344 104.6875 L 173.929688 104.792969 L 172.324219 104.949219 L 170.707031 105.15625 L 169.082031 105.414062 L 167.445312 105.71875 L 165.800781 106.074219 L 164.152344 106.472656 L 162.5 106.914062 L 160.84375 107.402344 L 159.1875 107.933594 L 157.527344 108.503906 L 155.871094 109.117188 L 154.214844 109.769531 L 152.566406 110.464844 L 150.921875 111.195312 L 149.289062 111.96875 L 147.660156 112.773438 L 146.046875 113.617188 L 144.445312 114.5 L 142.859375 115.414062 L 141.289062 116.367188 L 139.738281 117.351562 L 138.210938 118.367188 L 136.703125 119.417969 L 135.21875 120.503906 L 133.765625 121.617188 L 132.335938 122.765625 L 130.941406 123.941406 L 129.578125 125.148438 L 128.246094 126.386719 L 126.953125 127.652344 L 125.699219 128.945312 L 124.488281 130.269531 L 123.320312 131.617188 L 122.195312 132.992188 L 121.117188 134.398438 L 120.089844 135.824219 L 119.117188 137.277344 L 118.195312 138.757812 L 117.335938 140.261719 L 116.53125 141.785156 L 115.789062 143.335938 L 115.113281 144.90625 L 114.503906 146.496094 L 113.964844 148.109375 L 113.5 149.738281 L 113.105469 151.386719 L 112.792969 153.050781 L 112.558594 154.730469 L 112.410156 156.421875 L 112.34375 158.125 L 112.367188 159.839844 L 112.367188 159.953125 L 112.375 160.066406 L 112.382812 160.175781 L 112.394531 160.285156 L 112.410156 160.390625 L 112.429688 160.492188 L 112.453125 160.59375 L 112.476562 160.691406 L 112.503906 160.789062 L 112.53125 160.882812 L 112.5625 160.972656 L 112.597656 161.0625 L 112.675781 161.234375 L 112.714844 161.316406 L 112.761719 161.394531 L 112.804688 161.472656 L 112.90625 161.621094 L 112.957031 161.691406 L 113.011719 161.757812 L 113.070312 161.824219 L 113.125 161.886719 L 113.3125 162.0625 L 113.375 162.113281 L 113.441406 162.167969 L 113.652344 162.308594 L 113.722656 162.347656 L 113.871094 162.425781 L 113.945312 162.460938 L 114.019531 162.492188 L 114.097656 162.523438 L 114.253906 162.578125 L 114.335938 162.601562 L 114.414062 162.621094 L 114.496094 162.640625 L 114.660156 162.671875 L 114.742188 162.683594 L 114.90625 162.699219 L 114.988281 162.703125 L 115.074219 162.707031 L 115.15625 162.707031 L 115.238281 162.703125 L 115.324219 162.699219 L 115.488281 162.683594 L 115.574219 162.671875 L 115.738281 162.640625 L 115.902344 162.601562 L 115.984375 162.578125 L 116.0625 162.550781 L 116.144531 162.523438 L 116.300781 162.460938 L 116.378906 162.425781 L 116.527344 162.347656 L 116.675781 162.261719 L 116.75 162.214844 L 116.820312 162.164062 L 116.886719 162.113281 L 116.957031 162.058594 L 117.023438 162.003906 L 117.089844 161.945312 L 117.214844 161.820312 L 117.332031 161.6875 L 117.390625 161.617188 L 117.445312 161.542969 L 117.496094 161.46875 L 117.597656 161.3125 L 117.644531 161.230469 L 117.6875 161.148438 L 117.730469 161.058594 L 117.769531 160.972656 L 117.808594 160.878906 L 117.839844 160.785156 L 117.875 160.691406 L 117.902344 160.59375 L 117.957031 160.390625 L 117.976562 160.285156 L 117.996094 160.175781 L 118.011719 160.066406 L 118.035156 159.839844 L 118.136719 158.425781 L 118.308594 157.027344 L 118.550781 155.648438 L 118.859375 154.285156 L 119.234375 152.941406 L 119.667969 151.609375 L 120.167969 150.300781 L 120.726562 149.003906 L 121.34375 147.722656 L 122.019531 146.460938 L 122.75 145.21875 L 123.535156 143.992188 L 124.371094 142.78125 L 125.257812 141.59375 L 126.191406 140.425781 L 127.175781 139.273438 L 128.203125 138.148438 L 129.273438 137.039062 L 130.386719 135.957031 L 131.535156 134.898438 L 132.722656 133.859375 L 133.945312 132.851562 L 135.203125 131.863281 L 136.488281 130.90625 L 137.804688 129.972656 L 139.148438 129.070312 L 140.515625 128.195312 L 141.902344 127.347656 L 143.3125 126.53125 L 144.738281 125.746094 L 146.179688 124.992188 L 147.636719 124.269531 L 149.101562 123.582031 L 150.574219 122.925781 L 152.054688 122.304688 L 153.539062 121.714844 L 155.023438 121.164062 L 156.507812 120.648438 L 157.988281 120.167969 L 159.460938 119.722656 L 160.925781 119.316406 L 162.378906 118.949219 L 163.820312 118.621094 L 165.242188 118.328125 L 166.644531 118.078125 L 168.027344 117.863281 L 169.382812 117.691406 L 170.710938 117.558594 L 172.007812 117.464844 L 173.269531 117.410156 L 174.496094 117.394531 L 175.679688 117.421875 L 176.820312 117.484375 L 177.914062 117.582031 L 178.957031 117.71875 L 179.945312 117.890625 L 180.875 118.09375 L 181.75 118.328125 L 182.558594 118.59375 L 183.304688 118.878906 L 183.980469 119.1875 L 184.59375 119.511719 L 185.144531 119.851562 L 185.628906 120.203125 L 186.054688 120.5625 L 186.421875 120.929688 L 186.757812 121.289062 L 187.074219 121.648438 L 187.355469 122.027344 L 187.613281 122.4375 L 187.847656 122.886719 L 188.054688 123.386719 L 188.242188 123.945312 L 188.398438 124.574219 L 188.523438 125.277344 L 188.605469 126.066406 L 188.644531 126.941406 L 188.625 127.90625 L 188.546875 128.964844 L 188.398438 130.113281 L 188.175781 131.355469 L 187.875 132.6875 L 187.488281 134.113281 L 187.015625 135.625 L 186.449219 137.222656 L 185.785156 138.910156 L 185.023438 140.683594 L 184.160156 142.542969 L 183.195312 144.484375 L 182.117188 146.507812 L 180.933594 148.617188 L 179.636719 150.804688 L 178.222656 153.078125 L 176.695312 155.429688 L 175.050781 157.863281 L 173.28125 160.378906 L 171.390625 162.976562 L 169.375 165.65625 L 167.234375 168.414062 L 164.949219 171.347656 L 162.71875 174.269531 L 160.542969 177.183594 L 158.429688 180.082031 L 156.367188 182.972656 L 154.363281 185.847656 L 152.417969 188.714844 L 150.527344 191.566406 L 148.691406 194.402344 L 146.914062 197.226562 L 145.195312 200.03125 L 143.53125 202.824219 L 141.925781 205.601562 L 140.375 208.359375 L 138.882812 211.105469 L 137.449219 213.828125 L 136.070312 216.535156 L 134.75 219.222656 L 133.484375 221.890625 L 132.277344 224.542969 L 131.128906 227.171875 L 130.039062 229.78125 L 129.003906 232.367188 L 128.027344 234.933594 L 127.109375 237.476562 L 126.25 240 L 125.449219 242.5 L 124.703125 244.976562 L 124.019531 247.429688 L 123.394531 249.859375 L 122.828125 252.265625 L 122.324219 254.644531 L 121.875 257 L 121.488281 259.328125 L 121.164062 261.632812 L 120.898438 263.914062 L 120.695312 266.164062 L 120.554688 268.390625 L 120.480469 270.585938 L 120.464844 272.757812 L 120.515625 274.898438 L 120.628906 277.011719 L 120.8125 279.09375 L 121.058594 281.148438 L 121.375 283.167969 L 121.757812 285.15625 L 122.210938 287.113281 L 122.734375 289.035156 L 123.332031 290.917969 L 123.996094 292.765625 L 124.738281 294.570312 L 125.550781 296.335938 L 126.4375 298.058594 L 127.394531 299.734375 L 128.429688 301.359375 L 129.535156 302.933594 L 130.765625 304.414062 L 132.066406 305.835938 L 133.429688 307.191406 L 134.859375 308.484375 L 136.355469 309.710938 L 137.910156 310.871094 L 139.523438 311.960938 L 141.195312 312.984375 L 142.921875 313.9375 L 144.707031 314.816406 L 146.542969 315.628906 L 148.429688 316.371094 L 150.367188 317.042969 L 152.355469 317.640625 L 154.394531 318.171875 L 156.480469 318.636719 L 158.613281 319.027344 L 160.796875 319.351562 L 163.023438 319.609375 L 165.300781 319.796875 L 167.628906 319.914062 L 170 319.96875 L 172.421875 319.953125 L 174.890625 319.867188 L 177.410156 319.714844 L 179.976562 319.496094 L 182.59375 319.210938 L 185.257812 318.851562 L 187.972656 318.429688 L 190.742188 317.933594 L 193.558594 317.371094 L 196.425781 316.738281 L 199.34375 316.039062 L 202.3125 315.265625 L 205.332031 314.421875 L 208.40625 313.503906 L 211.53125 312.519531 L 214.710938 311.457031 L 217.941406 310.324219 L 221.226562 309.121094 L 224.5625 307.839844 L 227.953125 306.484375 L 231.394531 305.054688 L 231.488281 305.015625 L 231.660156 304.929688 L 231.742188 304.882812 L 231.824219 304.832031 L 231.972656 304.730469 L 232.046875 304.675781 L 232.113281 304.621094 L 232.179688 304.5625 L 232.242188 304.503906 L 232.300781 304.441406 L 232.355469 304.378906 L 232.410156 304.3125 L 232.464844 304.25 L 232.511719 304.179688 L 232.558594 304.113281 L 232.601562 304.042969 L 232.640625 303.972656 L 232.679688 303.898438 L 232.714844 303.828125 L 232.75 303.753906 L 232.777344 303.675781 L 232.808594 303.601562 L 232.855469 303.445312 L 232.894531 303.289062 L 232.910156 303.207031 L 232.921875 303.128906 L 232.933594 303.046875 L 232.941406 302.964844 L 232.949219 302.886719 L 232.957031 302.722656 L 232.953125 302.636719 L 232.953125 302.554688 L 232.949219 302.472656 L 232.941406 302.390625 L 232.90625 302.144531 L 232.875 301.980469 L 232.855469 301.898438 L 232.832031 301.820312 L 232.808594 301.738281 L 232.78125 301.660156 L 232.753906 301.578125 L 232.726562 301.5 L 232.695312 301.421875 L 232.660156 301.347656 L 232.625 301.269531 L 232.589844 301.195312 L 232.511719 301.046875 L 232.425781 300.90625 L 232.332031 300.765625 L 232.230469 300.632812 L 232.179688 300.570312 L 232.070312 300.445312 L 231.953125 300.328125 L 231.894531 300.273438 L 231.832031 300.21875 L 231.769531 300.167969 L 231.703125 300.117188 L 231.503906 299.976562 L 231.433594 299.9375 L 231.359375 299.898438 L 231.289062 299.859375 L 231.214844 299.824219 L 231.140625 299.792969 L 231.0625 299.761719 L 230.984375 299.734375 L 230.90625 299.710938 L 230.824219 299.6875 L 230.746094 299.667969 L 230.664062 299.652344 L 230.578125 299.636719 L 230.496094 299.625 L 230.410156 299.617188 L 230.320312 299.613281 L 230.144531 299.613281 L 230.054688 299.617188 L 229.964844 299.625 L 229.875 299.636719 L 229.78125 299.652344 L 229.59375 299.691406 L 229.40625 299.746094 L 225.925781 300.859375 L 222.515625 301.902344 L 219.167969 302.875 L 215.890625 303.777344 L 212.679688 304.609375 L 209.53125 305.371094 L 206.453125 306.066406 L 203.441406 306.695312 L 200.5 307.257812 L 197.621094 307.753906 L 194.8125 308.183594 L 192.074219 308.550781 L 189.402344 308.855469 L 186.796875 309.097656 L 184.261719 309.28125 L 181.796875 309.402344 L 179.398438 309.460938 L 177.070312 309.464844 L 174.8125 309.410156 L 172.625 309.300781 L 170.507812 309.136719 L 168.460938 308.917969 L 166.480469 308.648438 L 164.574219 308.328125 L 162.738281 307.960938 L 160.972656 307.542969 L 159.277344 307.078125 L 157.652344 306.570312 L 156.09375 306.023438 L 154.609375 305.429688 L 153.1875 304.796875 L 151.835938 304.128906 L 150.546875 303.421875 L 149.324219 302.679688 L 148.164062 301.90625 L 147.066406 301.09375 L 146.027344 300.253906 L 145.046875 299.378906 L 144.121094 298.472656 L 143.25 297.535156 L 142.429688 296.5625 L 141.660156 295.558594 L 140.941406 294.519531 L 140.214844 293.484375 L 139.527344 292.410156 L 138.886719 291.289062 L 138.289062 290.128906 L 137.734375 288.925781 L 137.226562 287.675781 L 136.757812 286.378906 L 136.332031 285.039062 L 135.957031 283.652344 L 135.621094 282.214844 L 135.335938 280.734375 L 135.097656 279.207031 L 134.910156 277.632812 L 134.769531 276.015625 L 134.675781 274.347656 L 134.636719 272.640625 L 134.648438 270.886719 L 134.710938 269.089844 L 134.828125 267.25 L 135 265.367188 L 135.222656 263.445312 L 135.5 261.480469 L 135.832031 259.480469 L 136.21875 257.441406 L 136.660156 255.363281 L 137.15625 253.25 L 137.710938 251.101562 L 138.320312 248.917969 L 138.984375 246.703125 L 139.707031 244.453125 L 140.484375 242.171875 L 141.316406 239.859375 L 142.207031 237.515625 L 143.15625 235.144531 L 144.160156 232.746094 L 145.222656 230.316406 L 146.339844 227.863281 L 147.511719 225.382812 L 148.746094 222.878906 L 150.03125 220.347656 L 151.378906 217.796875 L 152.78125 215.21875 L 154.238281 212.621094 L 155.753906 210.003906 L 157.328125 207.363281 L 158.957031 204.703125 L 160.640625 202.023438 L 162.386719 199.328125 L 164.183594 196.613281 L 166.039062 193.882812 L 167.953125 191.136719 L 169.921875 188.375 L 171.949219 185.597656 L 174.03125 182.804688 L 176.171875 180.003906 L 178.367188 177.1875 Z M 180.636719 174.261719 "/>
<path fill-rule="nonzero" fill="rgb(62.745098%, 32.156863%, 17.647059%)" fill-opacity="1" stroke-width="0.75" stroke-linecap="round" stroke-linejoin="round" stroke="rgb(62.745098%, 32.156863%, 17.647059%)" stroke-opacity="1" stroke-miterlimit="10" d="M 259.140625 292.332031 L 259.234375 292.328125 L 259.429688 292.304688 L 259.53125 292.289062 L 259.628906 292.269531 L 259.730469 292.246094 L 259.828125 292.21875 L 259.929688 292.1875 L 260.035156 292.15625 L 260.136719 292.117188 L 260.238281 292.074219 L 260.34375 292.03125 L 260.554688 291.929688 L 260.660156 291.871094 L 261.523438 291.386719 L 262.386719 290.910156 L 263.25 290.445312 L 264.113281 289.988281 L 264.976562 289.542969 L 265.84375 289.101562 L 266.707031 288.671875 L 267.570312 288.246094 L 268.4375 287.832031 L 269.304688 287.421875 L 270.167969 287.015625 L 271.035156 286.617188 L 271.902344 286.226562 L 272.769531 285.839844 L 273.640625 285.457031 L 274.507812 285.082031 L 275.378906 284.707031 L 276.25 284.335938 L 277.121094 283.972656 L 277.996094 283.609375 L 278.867188 283.246094 L 279.742188 282.890625 L 280.617188 282.53125 L 281.496094 282.179688 L 282.371094 281.824219 L 283.25 281.472656 L 284.128906 281.117188 L 285.894531 280.414062 L 287.660156 279.703125 L 288.546875 279.347656 L 290.320312 278.628906 L 291.210938 278.265625 L 292.101562 277.898438 L 292.992188 277.527344 L 294.78125 276.777344 L 295.675781 276.394531 L 297.472656 275.613281 L 298.375 275.214844 L 299.273438 274.808594 L 300.175781 274.398438 L 301.082031 273.976562 L 301.984375 273.550781 L 302.894531 273.117188 L 303.800781 272.675781 L 304.710938 272.226562 L 305.621094 271.765625 L 306.53125 271.296875 L 307.445312 270.820312 L 308.355469 270.332031 L 309.273438 269.832031 L 310.1875 269.324219 L 311.105469 268.804688 L 312.023438 268.269531 L 312.941406 267.726562 L 313.863281 267.167969 L 314.785156 266.597656 L 315.707031 266.015625 L 316.628906 265.421875 L 317.550781 264.8125 L 318.476562 264.1875 L 319.402344 263.546875 L 320.328125 262.894531 L 321.253906 262.226562 L 322.179688 261.539062 L 323.109375 260.839844 L 324.035156 260.121094 L 324.964844 259.386719 L 325.894531 258.636719 L 326.824219 257.867188 L 327.753906 257.082031 L 328.683594 256.277344 L 329.613281 255.453125 L 330.546875 254.613281 L 331.476562 253.75 L 332.40625 252.871094 L 333.339844 251.96875 L 334.269531 251.050781 L 335.203125 250.109375 L 336.132812 249.144531 L 337.066406 248.160156 L 337.996094 247.15625 L 338.929688 246.128906 L 339.859375 245.082031 L 340.792969 244.007812 L 341.726562 242.914062 L 342.65625 241.796875 L 343.589844 240.652344 L 344.523438 239.488281 L 345.453125 238.296875 L 346.386719 237.082031 L 347.320312 235.84375 L 348.25 234.578125 L 349.183594 233.289062 L 350.117188 231.96875 L 350.972656 230.773438 L 351.839844 229.609375 L 352.710938 228.472656 L 353.59375 227.367188 L 354.480469 226.289062 L 355.378906 225.242188 L 356.28125 224.21875 L 357.195312 223.21875 L 358.113281 222.246094 L 359.042969 221.296875 L 359.976562 220.367188 L 360.921875 219.464844 L 361.871094 218.578125 L 362.832031 217.714844 L 363.800781 216.871094 L 364.773438 216.042969 L 365.757812 215.234375 L 366.75 214.441406 L 367.75 213.664062 L 368.757812 212.902344 L 369.777344 212.15625 L 370.800781 211.421875 L 371.835938 210.699219 L 372.878906 209.992188 L 373.929688 209.292969 L 374.992188 208.605469 L 376.058594 207.925781 L 377.136719 207.253906 L 378.226562 206.59375 L 379.320312 205.9375 L 380.425781 205.289062 L 381.535156 204.648438 L 382.660156 204.011719 L 383.789062 203.378906 L 384.925781 202.746094 L 386.074219 202.121094 L 387.230469 201.496094 L 388.394531 200.871094 L 389.566406 200.25 L 390.746094 199.625 L 391.933594 199.003906 L 393.132812 198.375 L 394.335938 197.75 L 395.550781 197.117188 L 396.769531 196.480469 L 397.996094 195.839844 L 399.230469 195.195312 L 400.472656 194.542969 L 401.722656 193.882812 L 402.976562 193.207031 L 404.222656 192.5 L 405.472656 191.785156 L 406.730469 191.058594 L 407.996094 190.320312 L 409.265625 189.574219 L 410.542969 188.8125 L 411.820312 188.035156 L 413.105469 187.246094 L 414.398438 186.441406 L 415.691406 185.621094 L 416.992188 184.785156 L 418.292969 183.929688 L 419.597656 183.058594 L 420.910156 182.167969 L 422.222656 181.253906 L 423.535156 180.324219 L 424.855469 179.371094 L 426.175781 178.394531 L 427.496094 177.398438 L 428.820312 176.378906 L 430.144531 175.332031 L 431.472656 174.261719 L 432.800781 173.167969 L 434.128906 172.046875 L 435.457031 170.894531 L 436.785156 169.71875 L 438.113281 168.511719 L 439.441406 167.277344 L 440.769531 166.015625 L 442.09375 164.71875 L 443.421875 163.390625 L 444.742188 162.03125 L 446.066406 160.640625 L 447.386719 159.214844 L 448.703125 157.753906 L 450.019531 156.261719 L 451.332031 154.730469 L 452.640625 153.164062 L 453.949219 151.5625 L 455.253906 149.921875 L 456.554688 148.242188 L 457.851562 146.523438 L 459.144531 144.765625 L 460.433594 142.964844 L 461.71875 141.128906 L 463 139.246094 L 464.277344 137.320312 L 465.550781 135.355469 L 466.816406 133.34375 L 475.21875 120.015625 L 459.636719 122.609375 L 453.347656 123.65625 L 450.199219 124.179688 L 447.046875 124.703125 L 443.890625 125.226562 L 440.730469 125.75 L 434.402344 126.796875 L 431.234375 127.320312 L 424.890625 128.367188 L 421.714844 128.890625 L 418.535156 129.414062 L 412.167969 130.460938 L 408.980469 130.984375 L 399.40625 132.554688 L 396.207031 133.078125 L 393.011719 133.601562 L 383.402344 135.171875 L 376.988281 136.21875 L 370.566406 137.265625 L 367.355469 137.792969 L 360.925781 138.839844 L 351.269531 140.410156 L 348.046875 140.933594 L 344.828125 141.457031 L 341.605469 141.980469 L 338.378906 142.503906 L 335.15625 143.027344 L 315.796875 146.167969 L 312.566406 146.691406 L 309.339844 147.214844 L 302.878906 148.261719 L 299.652344 148.785156 L 293.191406 149.832031 L 289.964844 150.359375 L 286.734375 150.882812 L 283.507812 151.40625 L 280.277344 151.929688 L 267.371094 154.023438 L 264.148438 154.546875 L 260.921875 155.070312 L 254.476562 156.117188 L 251.257812 156.640625 L 248.035156 157.164062 L 241.597656 158.210938 L 238.382812 158.738281 L 228.738281 160.308594 L 225.53125 160.832031 L 222.320312 161.355469 L 215.90625 162.402344 L 209.5 163.449219 L 206.300781 163.972656 L 203.105469 164.496094 L 199.90625 165.019531 L 196.714844 165.546875 L 193.535156 166.132812 L 187.183594 167.335938 L 184.011719 167.9375 L 180.84375 168.539062 L 177.679688 169.136719 L 174.515625 169.738281 L 171.355469 170.339844 L 168.199219 170.9375 L 165.042969 171.539062 L 161.890625 172.140625 L 158.742188 172.738281 L 155.597656 173.339844 L 152.457031 173.9375 L 149.316406 174.539062 L 146.183594 175.140625 L 143.050781 175.738281 L 140.585938 176.164062 L 138.078125 176.582031 L 135.613281 176.980469 L 133.195312 177.355469 L 130.820312 177.710938 L 128.492188 178.046875 L 126.210938 178.363281 L 123.972656 178.65625 L 121.785156 178.933594 L 119.640625 179.191406 L 117.542969 179.429688 L 115.488281 179.648438 L 113.484375 179.851562 L 111.523438 180.035156 L 109.609375 180.203125 L 107.742188 180.355469 L 105.921875 180.488281 L 104.148438 180.605469 L 102.421875 180.707031 L 100.742188 180.792969 L 99.109375 180.867188 L 97.523438 180.921875 L 95.984375 180.964844 L 94.492188 180.992188 L 93.050781 181.007812 L 91.652344 181.011719 L 90.304688 181 L 89.003906 180.976562 L 87.75 180.941406 L 86.546875 180.894531 L 85.394531 180.835938 L 84.289062 180.765625 L 83.230469 180.6875 L 82.222656 180.597656 L 81.269531 180.5 L 80.363281 180.394531 L 79.507812 180.28125 L 78.707031 180.160156 L 77.957031 180.03125 L 77.871094 180.015625 L 78.320312 179.871094 L 79.09375 179.644531 L 79.917969 179.421875 L 80.800781 179.195312 L 81.734375 178.972656 L 82.71875 178.753906 L 83.757812 178.539062 L 84.847656 178.328125 L 85.988281 178.121094 L 87.179688 177.917969 L 88.425781 177.71875 L 89.71875 177.53125 L 91.0625 177.34375 L 92.460938 177.167969 L 93.90625 176.996094 L 95.402344 176.832031 L 96.953125 176.675781 L 98.550781 176.527344 L 100.199219 176.390625 L 101.898438 176.261719 L 103.648438 176.140625 L 105.445312 176.027344 L 107.296875 175.929688 L 109.195312 175.839844 L 111.148438 175.757812 L 113.148438 175.691406 L 115.199219 175.632812 L 115.308594 175.628906 L 115.410156 175.621094 L 115.515625 175.609375 L 115.613281 175.597656 L 115.808594 175.558594 L 115.902344 175.535156 L 115.992188 175.511719 L 116.171875 175.449219 L 116.253906 175.417969 L 116.339844 175.378906 L 116.496094 175.300781 L 116.574219 175.257812 L 116.648438 175.210938 L 116.859375 175.058594 L 116.921875 175.003906 L 117.046875 174.886719 L 117.105469 174.828125 L 117.164062 174.765625 L 117.21875 174.703125 L 117.320312 174.570312 L 117.414062 174.429688 L 117.457031 174.359375 L 117.5 174.285156 L 117.539062 174.210938 L 117.609375 174.0625 L 117.644531 173.984375 L 117.671875 173.90625 L 117.703125 173.828125 L 117.726562 173.746094 L 117.75 173.667969 L 117.773438 173.585938 L 117.8125 173.421875 L 117.824219 173.339844 L 117.839844 173.253906 L 117.851562 173.171875 L 117.859375 173.085938 L 117.867188 173.003906 L 117.871094 172.917969 L 117.871094 172.664062 L 117.867188 172.578125 L 117.859375 172.496094 L 117.851562 172.410156 L 117.839844 172.328125 L 117.824219 172.246094 L 117.8125 172.160156 L 117.773438 171.996094 L 117.753906 171.917969 L 117.726562 171.835938 L 117.703125 171.757812 L 117.671875 171.675781 L 117.644531 171.597656 L 117.609375 171.523438 L 117.574219 171.445312 L 117.539062 171.371094 L 117.5 171.296875 L 117.414062 171.15625 L 117.320312 171.015625 L 117.21875 170.882812 L 117.164062 170.820312 L 117.105469 170.757812 L 116.988281 170.640625 L 116.921875 170.585938 L 116.859375 170.53125 L 116.789062 170.476562 L 116.71875 170.429688 L 116.648438 170.378906 L 116.574219 170.335938 L 116.417969 170.25 L 116.339844 170.210938 L 116.253906 170.175781 L 116.171875 170.144531 L 115.992188 170.082031 L 115.902344 170.058594 L 115.808594 170.035156 L 115.710938 170.015625 L 115.613281 170 L 115.515625 169.988281 L 115.410156 169.976562 L 115.308594 169.96875 L 115.199219 169.964844 L 113.113281 169.921875 L 111.070312 169.894531 L 109.078125 169.878906 L 107.136719 169.875 L 105.242188 169.886719 L 103.394531 169.910156 L 101.59375 169.949219 L 99.84375 169.996094 L 98.136719 170.058594 L 96.480469 170.128906 L 94.875 170.214844 L 93.3125 170.308594 L 91.796875 170.414062 L 90.332031 170.53125 L 88.914062 170.65625 L 87.539062 170.789062 L 86.214844 170.933594 L 84.933594 171.089844 L 83.699219 171.253906 L 82.511719 171.425781 L 81.371094 171.605469 L 80.273438 171.792969 L 79.222656 171.992188 L 78.214844 172.195312 L 77.25 172.410156 L 76.328125 172.632812 L 75.449219 172.863281 L 74.609375 173.101562 L 73.8125 173.351562 L 73.050781 173.609375 L 72.328125 173.882812 L 71.640625 174.167969 L 70.988281 174.46875 L 70.363281 174.792969 L 69.765625 175.140625 L 69.191406 175.523438 L 68.636719 175.949219 L 68.105469 176.4375 L 67.601562 177.003906 L 67.136719 177.667969 L 66.742188 178.453125 L 66.460938 179.359375 L 66.339844 180.347656 L 66.414062 181.355469 L 66.664062 182.304688 L 67.054688 183.140625 L 67.527344 183.855469 L 68.046875 184.453125 L 68.59375 184.960938 L 69.160156 185.398438 L 69.746094 185.78125 L 70.347656 186.125 L 70.976562 186.441406 L 71.628906 186.734375 L 72.3125 187.007812 L 73.027344 187.261719 L 73.777344 187.507812 L 74.5625 187.738281 L 75.386719 187.957031 L 76.253906 188.167969 L 77.15625 188.371094 L 78.101562 188.5625 L 79.089844 188.742188 L 80.121094 188.914062 L 81.195312 189.078125 L 82.316406 189.230469 L 83.476562 189.375 L 84.6875 189.507812 L 85.9375 189.632812 L 87.234375 189.746094 L 88.578125 189.851562 L 89.964844 189.941406 L 91.398438 190.023438 L 92.878906 190.09375 L 94.402344 190.152344 L 95.972656 190.195312 L 97.589844 190.230469 L 99.253906 190.25 L 100.960938 190.257812 L 102.714844 190.253906 L 104.515625 190.234375 L 106.363281 190.199219 L 108.257812 190.152344 L 110.199219 190.089844 L 112.183594 190.011719 L 114.214844 189.917969 L 116.296875 189.808594 L 118.421875 189.6875 L 120.59375 189.542969 L 122.808594 189.386719 L 125.074219 189.210938 L 127.386719 189.019531 L 129.742188 188.808594 L 132.144531 188.582031 L 134.59375 188.335938 L 137.089844 188.070312 L 139.632812 187.785156 L 142.222656 187.480469 L 144.84375 187.15625 L 144.949219 187.140625 L 148.105469 186.695312 L 151.265625 186.246094 L 154.425781 185.800781 L 157.589844 185.351562 L 160.761719 184.90625 L 163.933594 184.457031 L 167.105469 184.011719 L 170.285156 183.5625 L 173.464844 183.117188 L 176.648438 182.667969 L 179.835938 182.222656 L 183.027344 181.777344 L 186.21875 181.328125 L 192.609375 180.4375 L 195.808594 179.988281 L 199.007812 179.53125 L 202.203125 179.007812 L 205.394531 178.484375 L 208.589844 177.960938 L 211.789062 177.4375 L 214.992188 176.914062 L 218.191406 176.390625 L 231.019531 174.296875 L 234.234375 173.773438 L 237.445312 173.25 L 243.875 172.203125 L 256.75 170.109375 L 259.972656 169.582031 L 266.417969 168.535156 L 272.871094 167.488281 L 276.09375 166.964844 L 279.320312 166.441406 L 282.550781 165.917969 L 289.003906 164.871094 L 292.234375 164.347656 L 295.460938 163.824219 L 298.691406 163.300781 L 301.917969 162.777344 L 308.378906 161.730469 L 311.605469 161.207031 L 314.835938 160.683594 L 318.0625 160.160156 L 321.292969 159.636719 L 324.519531 159.113281 L 327.75 158.585938 L 334.203125 157.539062 L 337.425781 157.015625 L 340.652344 156.492188 L 343.875 155.96875 L 347.101562 155.445312 L 350.324219 154.921875 L 353.542969 154.398438 L 356.765625 153.875 L 363.203125 152.828125 L 372.847656 151.257812 L 376.058594 150.730469 L 382.480469 149.683594 L 388.894531 148.636719 L 392.097656 148.113281 L 395.296875 147.589844 L 398.5 147.066406 L 408.085938 145.496094 L 411.277344 144.972656 L 414.464844 144.449219 L 417.652344 143.921875 L 420.835938 143.398438 L 427.195312 142.351562 L 430.371094 141.828125 L 436.714844 140.78125 L 439.882812 140.257812 L 443.046875 139.734375 L 445.53125 139.320312 L 445.296875 139.632812 L 444.101562 141.171875 L 442.910156 142.675781 L 441.714844 144.140625 L 440.519531 145.570312 L 439.320312 146.964844 L 438.125 148.324219 L 436.925781 149.648438 L 435.726562 150.945312 L 434.527344 152.207031 L 433.328125 153.4375 L 432.128906 154.640625 L 430.929688 155.8125 L 429.726562 156.957031 L 428.523438 158.074219 L 427.324219 159.167969 L 426.121094 160.230469 L 424.917969 161.273438 L 423.714844 162.289062 L 422.511719 163.28125 L 421.308594 164.25 L 420.105469 165.199219 L 418.902344 166.128906 L 417.699219 167.035156 L 416.496094 167.925781 L 415.289062 168.796875 L 414.085938 169.648438 L 412.878906 170.484375 L 411.675781 171.304688 L 410.46875 172.109375 L 409.265625 172.902344 L 408.058594 173.679688 L 406.855469 174.441406 L 405.648438 175.195312 L 404.445312 175.933594 L 403.238281 176.664062 L 402.03125 177.382812 L 400.828125 178.09375 L 399.621094 178.796875 L 398.417969 179.492188 L 397.210938 180.183594 L 396.007812 180.863281 L 394.816406 181.5625 L 393.628906 182.265625 L 392.441406 182.964844 L 391.257812 183.660156 L 390.070312 184.355469 L 385.335938 187.121094 L 384.15625 187.816406 L 382.980469 188.511719 L 381.800781 189.214844 L 380.628906 189.917969 L 379.457031 190.625 L 378.285156 191.339844 L 377.117188 192.0625 L 375.953125 192.789062 L 374.792969 193.527344 L 373.636719 194.269531 L 372.480469 195.027344 L 371.332031 195.792969 L 370.183594 196.566406 L 369.042969 197.355469 L 367.90625 198.160156 L 366.773438 198.972656 L 365.648438 199.804688 L 364.527344 200.648438 L 363.414062 201.507812 L 362.304688 202.386719 L 361.203125 203.28125 L 360.105469 204.195312 L 359.019531 205.128906 L 357.9375 206.078125 L 356.867188 207.050781 L 355.800781 208.046875 L 354.746094 209.0625 L 353.703125 210.101562 L 352.664062 211.164062 L 351.640625 212.246094 L 350.621094 213.359375 L 349.617188 214.492188 L 348.621094 215.65625 L 347.636719 216.84375 L 346.664062 218.058594 L 345.703125 219.300781 L 344.753906 220.570312 L 343.816406 221.871094 L 342.894531 223.199219 L 341.984375 224.558594 L 341.085938 225.949219 L 340.273438 227.226562 L 339.457031 228.472656 L 338.644531 229.695312 L 337.832031 230.894531 L 337.019531 232.066406 L 336.207031 233.214844 L 335.390625 234.339844 L 334.578125 235.441406 L 333.765625 236.519531 L 332.953125 237.574219 L 332.140625 238.605469 L 331.324219 239.617188 L 330.511719 240.605469 L 329.699219 241.570312 L 328.886719 242.519531 L 328.070312 243.445312 L 327.257812 244.351562 L 326.445312 245.234375 L 325.628906 246.101562 L 324.816406 246.953125 L 324 247.78125 L 323.1875 248.59375 L 322.371094 249.386719 L 321.554688 250.164062 L 320.738281 250.925781 L 319.925781 251.667969 L 319.109375 252.398438 L 318.289062 253.109375 L 317.472656 253.808594 L 316.65625 254.488281 L 315.835938 255.15625 L 315.019531 255.8125 L 314.199219 256.453125 L 313.378906 257.078125 L 312.558594 257.695312 L 311.734375 258.296875 L 310.914062 258.886719 L 310.089844 259.464844 L 309.265625 260.03125 L 308.4375 260.585938 L 307.613281 261.128906 L 306.785156 261.664062 L 305.957031 262.191406 L 305.128906 262.707031 L 304.296875 263.210938 L 303.464844 263.710938 L 302.632812 264.199219 L 301.796875 264.679688 L 300.964844 265.152344 L 300.125 265.621094 L 299.289062 266.078125 L 298.449219 266.53125 L 297.609375 266.976562 L 296.769531 267.417969 L 295.925781 267.851562 L 295.082031 268.28125 L 294.234375 268.707031 L 293.390625 269.125 L 292.539062 269.542969 L 291.691406 269.957031 L 289.988281 270.769531 L 289.132812 271.175781 L 288.28125 271.574219 L 287.421875 271.972656 L 286.566406 272.371094 L 285.707031 272.769531 L 283.988281 273.558594 L 282.261719 274.347656 L 281.394531 274.742188 L 280.53125 275.140625 L 278.796875 275.9375 L 277.925781 276.339844 L 277.058594 276.742188 L 276.1875 277.152344 L 275.3125 277.5625 L 274.441406 277.972656 L 273.566406 278.390625 L 272.691406 278.8125 L 270.941406 279.671875 L 270.066406 280.109375 L 269.1875 280.550781 L 268.308594 281 L 267.429688 281.457031 L 266.550781 281.921875 L 265.671875 282.390625 L 264.792969 282.867188 L 263.910156 283.351562 L 263.03125 283.847656 L 262.148438 284.351562 L 261.269531 284.863281 L 260.386719 285.382812 L 259.503906 285.914062 L 258.625 286.457031 L 257.742188 287.007812 L 257.640625 287.074219 L 257.542969 287.140625 L 257.449219 287.207031 L 257.359375 287.277344 L 257.273438 287.347656 L 257.191406 287.421875 L 257.113281 287.496094 L 257.039062 287.570312 L 256.96875 287.644531 L 256.898438 287.722656 L 256.773438 287.878906 L 256.714844 287.957031 L 256.660156 288.039062 L 256.609375 288.117188 L 256.5625 288.199219 L 256.519531 288.28125 L 256.476562 288.367188 L 256.4375 288.449219 L 256.402344 288.535156 L 256.371094 288.617188 L 256.316406 288.789062 L 256.292969 288.875 L 256.273438 288.960938 L 256.242188 289.132812 L 256.234375 289.21875 L 256.222656 289.304688 L 256.214844 289.476562 L 256.214844 289.5625 L 256.21875 289.648438 L 256.222656 289.730469 L 256.230469 289.816406 L 256.242188 289.902344 L 256.289062 290.148438 L 256.359375 290.394531 L 256.386719 290.472656 L 256.449219 290.628906 L 256.484375 290.707031 L 256.523438 290.785156 L 256.601562 290.933594 L 256.644531 291.003906 L 256.738281 291.144531 L 256.789062 291.214844 L 256.839844 291.28125 L 256.894531 291.347656 L 256.949219 291.410156 L 257.007812 291.472656 L 257.125 291.589844 L 257.1875 291.648438 L 257.320312 291.757812 L 257.386719 291.808594 L 257.457031 291.859375 L 257.527344 291.90625 L 257.75 292.035156 L 257.828125 292.074219 L 257.90625 292.109375 L 258.152344 292.203125 L 258.234375 292.226562 L 258.40625 292.273438 L 258.585938 292.304688 L 258.765625 292.328125 L 258.855469 292.332031 L 258.949219 292.335938 L 259.042969 292.335938 Z M 259.140625 292.332031 "/>
<path fill-rule="nonzero" fill="rgb(62.745098%, 32.156863%, 17.647059%)" fill-opacity="1" stroke-width="0.75" stroke-linecap="round" stroke-linejoin="round" stroke="rgb(62.745098%, 32.156863%, 17.647059%)" stroke-opacity="1" stroke-miterlimit="10" d="M 73.746094 181.890625 L 73.828125 181.816406 L 73.804688 181.84375 L 73.742188 181.90625 Z M 73.746094 181.890625 "/>
<path fill-rule="nonzero" fill="rgb(62.745098%, 32.156863%, 17.647059%)" fill-opacity="1" stroke-width="0.75" stroke-linecap="round" stroke-linejoin="round" stroke="rgb(62.745098%, 32.156863%, 17.647059%)" stroke-opacity="1" stroke-miterlimit="10" d="M 144.855469 187.15625 L 144.84375 187.15625 L 144.84375 187.160156 Z M 144.855469 187.15625 "/>
</svg>
